<svg xmlns="http://www.w3.org/2000/svg" viewBox="0 0 512 512" role="img" aria-labelledby="title desc">
  <title id="title">py-dcHiC sticker</title>
  <desc id="desc">OmicVerse repository hex sticker for py-dcHiC.</desc>
  <defs>
    <linearGradient id="bg" x1="112" y1="90" x2="398" y2="430" gradientUnits="userSpaceOnUse">
      <stop offset="0" stop-color="#050706"/>
      <stop offset=".58" stop-color="#020403"/>
      <stop offset="1" stop-color="#000000"/>
    </linearGradient>
  </defs>
  <polygon points="256,34 450,146 450,368 256,480 62,368 62,146" fill="#000000" opacity=".34"/>
  <polygon points="256,22 458,139 458,373 256,490 54,373 54,139" fill="url(#bg)" stroke="#0B0F0A" stroke-width="19" stroke-linejoin="round"/>
  <polygon points="256,22 458,139 458,373 256,490 54,373 54,139" fill="none" stroke="#E8FFE0" stroke-width="12" stroke-linejoin="round"/>
  <g opacity=".22" stroke="#3FD36B" stroke-width="2.2">
    <path d="M112 166h288M100 222h312M100 278h312M112 334h288"/>
    <path d="M152 126v236M204 104v274M256 96v286M308 104v274M360 126v236"/>
  </g>
  <g id="motif">
    <path d="M158 310c0-132 68-132 68 0M226 310c0-132 68-132 68 0M294 310c0-132 68-132 68 0" fill="none" stroke="#00C7BE" stroke-width="8" stroke-linecap="round"/>
    <path d="M140 340h236" stroke="#FFFFFF" stroke-width="7" stroke-linecap="round"/>
    <path d="M160 198h196M160 238h196M160 278h196" stroke="#FFD60A" stroke-width="4" opacity=".62"/>
    <circle cx="194" cy="196" r="10" fill="#FF6961"/><circle cx="292" cy="238" r="10" fill="#32D74B"/><circle cx="344" cy="278" r="10" fill="#FFD60A"/>
  </g>
  <path id="label" d="M306.14,381.66 L311.31,390.61 L305.86,393.76 L292.27,370.22 L297.72,367.08 L299.16,369.57 Q299.43,367.43 300.39,365.93 Q301.35,364.44 303.13,363.41 Q306.28,361.59 309.75,362.92 Q313.22,364.26 315.50,368.20 Q317.77,372.14 317.20,375.82 Q316.62,379.49 313.47,381.31 Q311.69,382.34 309.91,382.42 Q308.13,382.50 306.14,381.66 Z M303.39,368.53 Q301.64,369.54 301.44,371.37 Q301.25,373.20 302.65,375.62 Q304.05,378.04 305.72,378.79 Q307.41,379.53 309.16,378.52 Q310.90,377.51 311.09,375.70 Q311.27,373.89 309.87,371.45 Q308.46,369.01 306.80,368.27 Q305.14,367.52 303.39,368.53 Z M312.35,358.63 L317.80,355.48 L329.06,364.41 L326.28,350.59 L331.73,347.44 L335.33,370.25 Q335.90,373.72 335.11,375.68 Q334.33,377.64 331.97,379.01 L328.82,380.83 L326.75,377.25 L328.46,376.27 Q329.84,375.47 330.22,374.66 Q330.60,373.86 330.29,372.51 L330.17,371.95 L312.35,358.63 Z M337.37,352.00 L346.92,346.48 L349.48,350.91 L339.92,356.43 L337.37,352.00 Z M360.89,333.93 L355.62,324.80 L361.10,321.63 L374.77,345.32 L369.29,348.49 L367.87,346.02 Q367.61,348.18 366.66,349.66 Q365.71,351.15 363.93,352.17 Q360.78,353.99 357.31,352.66 Q353.84,351.32 351.56,347.38 Q349.29,343.44 349.86,339.76 Q350.45,336.09 353.60,334.27 Q355.36,333.25 357.13,333.17 Q358.90,333.09 360.89,333.93 Z M363.67,347.05 Q365.42,346.03 365.61,344.23 Q365.79,342.41 364.38,339.98 Q362.97,337.54 361.32,336.80 Q359.66,336.05 357.90,337.06 Q356.17,338.06 355.99,339.87 Q355.80,341.68 357.21,344.12 Q358.62,346.55 360.28,347.30 Q361.93,348.05 363.67,347.05 Z M384.25,317.83 L386.82,322.27 Q385.27,322.16 383.94,322.44 Q382.61,322.72 381.40,323.41 Q379.12,324.73 378.62,326.79 Q378.12,328.86 379.50,331.25 Q380.88,333.64 382.92,334.24 Q384.96,334.84 387.24,333.52 Q388.52,332.78 389.45,331.74 Q390.38,330.69 390.92,329.38 L393.50,333.84 Q392.49,335.06 391.31,336.05 Q390.13,337.05 388.81,337.81 Q384.19,340.48 380.22,339.61 Q376.25,338.75 373.82,334.53 Q371.38,330.31 372.62,326.45 Q373.86,322.57 378.47,319.91 Q379.81,319.14 381.25,318.62 Q382.68,318.10 384.25,317.83 Z M385.61,308.76 L391.47,305.38 L396.47,314.04 L405.12,309.04 L400.12,300.38 L405.98,297.00 L419.10,319.73 L413.24,323.11 L407.68,313.48 L399.03,318.47 L404.60,328.10 L398.74,331.49 L385.61,308.76 Z M414.74,299.51 L420.19,296.37 L430.03,313.42 L424.59,316.56 L414.74,299.51 Z M410.91,292.88 L416.35,289.73 L418.92,294.18 L413.48,297.32 L410.91,292.88 Z M452.82,298.60 Q451.69,300.37 450.18,301.81 Q448.68,303.24 446.78,304.34 Q441.10,307.62 435.95,306.36 Q430.79,305.10 427.66,299.67 Q424.51,294.22 426.00,289.13 Q427.48,284.04 433.16,280.76 Q435.07,279.66 437.06,279.08 Q439.06,278.49 441.16,278.40 L443.87,283.10 Q441.60,282.93 439.72,283.33 Q437.83,283.73 436.09,284.74 Q432.95,286.55 432.31,289.60 Q431.68,292.64 433.72,296.17 Q435.75,299.69 438.70,300.67 Q441.66,301.63 444.80,299.82 Q446.55,298.81 447.83,297.38 Q449.11,295.95 450.10,293.89 L452.82,298.60 Z" fill="#FFFFFF"/>
</svg>
